<?xml version="1.0" encoding="UTF-8"?>
<svg id="_レイヤー_1" xmlns="http://www.w3.org/2000/svg" version="1.1" viewBox="0 0 1024 1024">
  <!-- Generator: Adobe Illustrator 29.7.1, SVG Export Plug-In . SVG Version: 2.1.1 Build 8)  -->
  <defs>
    <style>
      .st0 {
        fill: #e5c8a0;
      }

      .st0, .st1, .st2, .st3, .st4, .st5, .st6, .st7, .st8 {
        fill-rule: evenodd;
      }

      .st1 {
        fill: #4a3519;
      }

      .st2 {
        fill: #584120;
      }

      .st3 {
        fill: #523c1b;
      }

      .st4 {
        fill: #36290f;
      }

      .st5 {
        fill: #a37540;
      }

      .st6 {
        fill: #426b2c;
      }

      .st7 {
        fill: #659933;
      }

      .st8 {
        fill: #e5c8a1;
      }
    </style>
  </defs>
  <path class="st3" d="M959.95,343.76"/>
  <g>
    <path class="st5" d="M199.12,179.32c8.1-.33,16.12.24,24.08,1.72,33.05,9.64,60.95,27.42,83.71,53.32-43.55,28.06-81.58,62.46-114.1,103.2-19.64-41.96-24.23-85.53-13.76-130.72,3.1-11.99,9.79-21.17,20.07-27.52Z"/>
    <path class="st5" d="M766.73,179.32c17.3-3.25,28.97,3.26,34.97,19.49,8.11,23.05,10.78,46.75,8.03,71.1-1.4,7.61-2.55,15.25-3.44,22.93-3.05,10.69-6.11,21.39-9.17,32.11-1.57,4.95-3.68,9.54-6.31,13.76-33.47-40.76-72.46-74.78-116.96-102.06,11.04-14.31,24.42-25.97,40.13-34.97,16.48-10.34,34.06-17.8,52.75-22.36Z"/>
    <path class="st3" d="M958.23,712.54c-2.09-22.15-10.87-41.07-26.37-56.76-12.15-5.37-24.77-6.51-37.84-3.44-24.95,9.04-47.89,21.65-68.8,37.84-28.58,21.7-52.28,47.69-71.1,77.98-.77.77-1.53.77-2.29,0-1.03-1.89-2.18-3.61-3.44-5.16-5.6-10.38-11.9-20.32-18.92-29.81-.77-.77-.77-1.53,0-2.29l32.68-18.92c64.43-41.88,113.94-97.11,148.5-165.7,1.64-4.48,2.03-9.07,1.15-13.76-2.71-5.16-5.57-10.13-8.6-14.91-13.1-17.14-25.14-35.1-36.12-53.89-15.47-28.66-31.52-56.94-48.16-84.86-.56-1.48-.76-3.02-.57-4.59,9.85-19.24,17.88-39.11,24.08-59.63.41-3.18,1.18-6.23,2.29-9.17,5.89-25.28,7.99-50.89,6.31-76.83-13.13-81.68-58.05-106.53-134.74-74.54-31.21,14.86-58.36,35.31-81.42,61.35-1.53.77-3.06.77-4.59,0-7.06-3.44-14.32-6.31-21.79-8.6-31.65-7.45-72.79-14.02-120.98-13.9-57.52.15-105.56,9.79-140.47,19.63-12.69-10.57-25.31-21.47-37.84-32.68-31.79-25.5-68.1-38.51-108.94-38.99-17.93,3.14-32.65,11.74-44.15,25.8-3.1,4.79-6.34,9.38-9.75,13.76-13.92,33.6-17.54,68.39-10.89,104.35,5.37,29.66,14.74,57.95,28.09,84.86.85,2.06,2,3.98,3.44,5.73-14.94,26.01-29.85,52-44.72,77.98-15.02,26.67-31.65,52.28-49.88,76.83-2.29,5.73-2.29,11.47,0,17.2,32.85,63.24,78.53,115.22,137.03,155.95,1.39.49,2.53,1.26,3.44,2.29,13.83,8.15,27.77,16.18,41.85,24.08-1.71,4.25-3.82,8.46-6.31,12.61-22.49,30.87-37.21,65.27-44.15,103.2-5.57,25.32-5.19,50.55,1.15,75.68,4,20.09,12.99,37.49,26.95,52.17,7.04,6.19,15.07,10.58,24.08,13.19,2.52.44,4.82,1.19,6.88,2.29h3.44c57.14-1.15,114.47-1.53,172-1.15h217.87c33.48-.06,66.74-.06,99.76,0,27.51-3.44,53.5-11.47,77.98-24.08,47.78-28.3,82.57-68.04,104.35-119.26,5.74-13.16,10.33-26.6,13.74-40.34,2.03-8.2,5.54-24.06,6.9-44.51,1.15-17.23.47-33.05-1.15-47.01Z"/>
    <path class="st3" d="M64.05,808.62"/>
    <path class="st3" d="M155.81,602.45"/>
    <path class="st3" d="M307.88,808.62"/>
    <path class="st5" d="M704.11,757.51c-3.76-4.08-7.77-7.9-12.04-11.47-5.88,2.47-11.81,4.76-17.77,6.88-17.03,5.8-34.23,11.16-51.6,16.05-59.97,14.99-120.75,19.18-182.32,12.61-49.42-6.33-97.21-18.56-143.34-36.69-2.16-.31-3.68.46-4.59,2.29-31.02,38.18-47.84,81.94-50.45,131.3-.61,21.05,4.17,40.74,14.33,59.05,3.45,4.61,7.84,7.85,13.19,9.75,6.87.57,13.75.77,20.64.57.3-3.55,1.05-6.99,2.29-10.32,3.73-17.3,13.66-29.72,29.81-37.27,22.77-7.18,45.33-6.6,67.66,1.72-.94-24.86,7.09-46.27,24.08-64.21,10.03-9.83,21.5-17.66,34.4-23.51,45.09-14.98,86.37-8.1,123.84,20.64,12.46,11.51,20.88,25.47,25.23,41.85,2.39,8.22,3.53,16.63,3.44,25.23,4.32-2.36,8.91-4.08,13.76-5.16,11.8-1.73,23.64-2.11,35.55-1.15,29.23,5.33,45.66,22.73,49.31,52.17h19.49c3.67-1.94,6.93-4.61,9.75-8.03,8.98-14.51,14.14-30.18,15.48-47.01,2.52-49.95-10.86-95.06-40.13-135.31Z"/>
    <path class="st0" d="M597.47,876.77c-4.35-16.39-12.76-30.34-25.23-41.85-37.47-28.74-78.76-35.62-123.84-20.64-12.9,5.85-24.37,13.68-34.4,23.51-16.99,17.95-25.02,39.35-24.08,64.21,16.88,10.77,26.82,26.05,29.81,45.87h151.36c.03-5.47.79-10.81,2.29-16.05,5.56-13.21,14.74-23.15,27.52-29.81.09-8.6-1.05-17.01-3.44-25.23Z"/>
    <path class="st5" d="M876.47,877.84c-28.72,35.38-65.42,57.16-110.08,65.36,6.52-17.7,10.34-36.05,11.47-55.04.19-12.63,0-25.24-.57-37.84-2.5-13.83-5.37-27.59-8.6-41.28,8.11-12.76,16.52-25.38,25.23-37.84,2.29-.38,4.59-.77,6.88-1.15,9.56.39,18.74,2.49,27.52,6.31,26.47,11.56,45.78,30.48,57.91,56.76,3.02,8.73,3.41,17.51,1.15,26.37-3.36,6.34-6.98,12.45-10.89,18.35Z"/>
    <g>
      <path class="st5" d="M795.53,404.99c-48.56-85.28-120.05-141.85-214.43-169.71-29.34-5.95-70.28-11.02-118.75-7.01-42.35,3.5-77.57,12.85-103.71,21.91-59.19,28.99-106.96,71.03-143.34,126.14-28.66,49.66-57.32,99.35-86,149.07,34.46-31.97,68.48-64.65,102.06-98.04,6.55-6.17,13.43-11.9,20.64-17.2,24.81-19.1,52.34-32.29,82.56-39.56,6.86-.57,13.74-.95,20.64-1.15,57.06,3.16,87.64,33.36,91.74,90.59,1.33,13.94,1.53,28.08.57,42.43-2.1,8.36-2.67,16.76-1.72,25.23,9.57-3.78,19.52-5.89,29.81-6.31,15.29-.57,30.57-.77,45.87-.57,8.9,1.3,17.69,3.59,26.37,6.88,1.11-2.18,1.49-4.47,1.15-6.88-2.25-22.48-2.82-45.02-1.72-67.66,4.51-41.36,26.49-68.31,65.93-80.84,33.44-5.19,65.16.16,95.18,16.05,22.19,12.25,42.45,27.15,60.77,44.72,31.6,32.18,63.71,63.71,96.32,94.6-23.62-40.75-46.95-81.66-69.95-122.7Z"/>
      <g>
        <path class="st2" d="M839.1,589.61c-2.05,1.02-4.15,2.17-6.31,3.44-2.45,4.9-5.52,9.48-9.17,13.76l-1.15-1.15c-1.43,3.25-3.15,6.3-5.16,9.17-40.29,41.84-87.31,73.57-141.04,95.18-16.7,5.88-33.52,11.42-50.45,16.63-8.29,2.12-16.71,3.65-25.23,4.59,2.47.85,2.65,1.81.57,2.87-1.24-1.07-2.57-1.83-4.01-2.29,44.3-17.11,62.84-49.22,55.61-96.32-4.51-14.21-11.58-26.82-21.21-37.84-15.66-16.62-31.91-32.67-48.73-48.16-5.99-8.52-10.38-17.69-13.19-27.52-5.52-20.37-4.17-40.24,4.01-59.63,26.31-39.6,61.66-50.1,106.07-31.53,20.95,10.29,39.68,23.66,56.19,40.13,33.36,37.88,66.04,76.29,98.04,115.24,1.3,1.88,3.02,3.03,5.16,3.44Z"/>
        <path class="st2" d="M427.44,487.55c3.28,22.04-4.59,39.48-6.81,44.61-5.74,13.2-14.94,24.9-27.59,35.09-16.42,12.4-30.18,27.11-41.28,44.15-16.89,26.57-18.22,54.09-4.01,82.56,9.44,15.37,22.23,26.83,38.41,34.4-1.24.05-2.39.42-3.44,1.15-42.27-11.82-82.78-27.69-121.55-47.59-2.25-3.22-5.3-4.94-9.17-5.16.15-1.01-.23-1.77-1.15-2.29-6.95-3.54-13.69-7.4-20.22-11.6-7.42-4.77-18.2-12.63-27.94-21.08-9.75-8.45-9.51-9.08-13.52-13.05-4.92-4.87-1.47-1.16-8.17-8.27s-4.02-5.01-12.14-13.66c-8.12-8.65,0,0,0,0-.02-.02-3.56-3.48-6.77-7.11-.33-.37-.66-.75-.66-.75s-.34-.39-.69-.79c-.48-.55-2.44-2.95-5.07-6.26,40.16-49.05,72.44-86.66,91.16-107.79,3.59-4.05,15.36-17.96,33.83-32.11,9.07-6.95,18.62-13.26,28.67-18.92,10.3-5.47,20.87-8.9,31.7-10.3,5.64-.73,19.76-2.48,34.81,2.27,26.62,8.4,47.41,34.31,51.6,62.49Z"/>
      </g>
      <g>
        <path class="st4" d="M343.73,474.94c21.52-1.01,34.71,8.93,39.56,29.81,2.4,14.31-.67,27.3-9.17,38.99-11.56,11.93-25.12,14.79-40.71,8.6-13.35-9.08-19.47-21.7-18.35-37.84.53-19.81,10.08-33,28.67-39.56Z"/>
        <path class="st4" d="M632.7,474.94c24.93-1.63,39.64,9.84,44.15,34.4,1.15,15.12-3.25,28.31-13.19,39.56-20.03,12.2-36.66,8.57-49.88-10.89-11.51-22.64-7.88-42.32,10.89-59.05,3.19-.6,5.86-1.94,8.03-4.01Z"/>
      </g>
      <path class="st8" d="M865.48,527.69c-32.61-30.89-64.72-62.43-96.32-94.6-18.32-17.57-38.59-32.47-60.77-44.72-30.02-15.89-61.74-21.25-95.18-16.05-39.45,12.53-61.43,39.48-65.93,80.84-1.1,22.64-.53,45.18,1.72,67.66.34,2.41-.03,4.7-1.15,6.88-8.68-3.29-17.48-5.58-26.37-6.88-15.3-.19-30.58,0-45.87.57-10.3.41-20.24,2.52-29.81,6.31-.95-8.46-.38-16.87,1.72-25.23.95-14.35.76-28.48-.57-42.43-4.09-57.23-34.68-87.42-91.74-90.59-6.9.19-13.78.57-20.64,1.15-30.23,7.27-57.75,20.46-82.56,39.56-7.21,5.3-14.09,11.03-20.64,17.2-33.58,33.39-67.6,66.07-102.06,98.04-2.88,3.07-5.56,6.32-8.03,9.75,5.71,10.85,11.82,21.36,18.35,31.53,4.91,8.73,10.26,17.13,16.05,25.23,2.32-2.69,4.61-5.38,6.88-8.03,28.08-33.22,56.18-66.47,84.28-99.76,10.81-11.39,22.09-22.09,33.83-32.11,9.07-6.95,18.62-13.26,28.67-18.92,21.08-11.18,43.24-13.85,66.51-8.03,30.57,10.1,47.77,30.93,51.6,62.49,2.5,32.63-8.97,59.2-34.4,79.7-16.42,12.4-30.18,27.11-41.28,44.15-16.88,26.57-18.22,54.09-4.01,82.56,9.44,15.37,22.25,26.83,38.41,34.4,26.01,8.8,52.76,13.96,80.27,15.48,44.3,3.06,87.87-.95,130.72-12.04,44.3-17.11,62.84-49.22,55.61-96.32-4.51-14.21-11.58-26.82-21.21-37.84-15.66-16.62-31.91-32.67-48.73-48.16-5.99-8.52-10.38-17.69-13.19-27.52-5.52-20.37-4.17-40.24,4.01-59.63,26.31-39.6,61.66-50.1,106.07-31.53,20.95,10.29,39.68,23.66,56.19,40.13,33.36,37.88,66.04,76.29,98.04,115.24,1.3,1.88,3.02,3.03,5.16,3.44,10.69-17.53,20.81-35.5,30.39-53.89,0-3.27-1.33-5.94-4.01-8.03ZM576.51,619.99c7.24,4.97,8.76,11.27,4.59,18.92-10.89,17.32-26.57,27.83-47.01,31.53-14.37,2.67-26.8-.96-37.27-10.89-10.47,9.93-22.9,13.57-37.27,10.89-9.85-2.06-19.02-5.7-27.52-10.89-6.33-4.43-11.87-9.78-16.63-16.05-3.59-4.85-5.11-10.21-4.59-16.05,4.88-7.64,11.01-8.78,18.35-3.44,6.85,12.14,16.98,20.35,30.39,24.65,13.38,3.54,22.56-.86,27.52-13.19.13-4.3-.45-8.5-1.72-12.61-8.97-3.05-17.18-7.44-24.65-13.19-9.88-7.35-14.29-17.1-13.19-29.24,6.54-13.7,17.43-21.34,32.68-22.93,4.67-1.66,9.64-2.43,14.91-2.29,3.27,0,6.33.39,9.17,1.15,11.07.95,21.39,4.2,30.96,9.75,7.85,4.82,11.68,11.89,11.47,21.21-3.47,14.77-12.27,25.28-26.37,31.53-5,.96-9.21,3.07-12.61,6.31-2.19,10.45,1.25,18.29,10.32,23.51,15.98,2.06,29.55-2.72,40.71-14.33,2.35-5.4,5.61-10.18,9.75-14.33,2.67-.77,5.36-.77,8.03,0Z"/>
      <path class="st1" d="M576.51,619.99c-2.67-.77-5.36-.77-8.03,0-4.14,4.15-7.4,8.93-9.75,14.33-11.16,11.62-24.72,16.4-40.71,14.33-9.07-5.22-12.51-13.06-10.32-23.51,3.41-3.23,7.61-5.34,12.61-6.31,14.1-6.25,22.9-16.76,26.37-31.53.22-9.32-3.61-16.4-11.47-21.21-9.57-5.55-19.9-8.8-30.96-9.75-8.05-.08-16.08.31-24.08,1.15-15.25,1.59-26.14,9.23-32.68,22.93-1.1,12.14,3.3,21.89,13.19,29.24,7.48,5.74,15.69,10.14,24.65,13.19,1.27,4.12,1.85,8.31,1.72,12.61-4.97,12.33-14.14,16.73-27.52,13.19-13.4-4.3-23.54-12.51-30.39-24.65-7.34-5.34-13.46-4.2-18.35,3.44-.53,5.85,1,11.2,4.59,16.05,4.76,6.27,10.3,11.63,16.63,16.05,8.5,5.19,17.67,8.83,27.52,10.89,14.37,2.67,26.8-.96,37.27-10.89,10.47,9.93,22.9,13.57,37.27,10.89,20.45-3.7,36.12-14.22,47.01-31.53,4.17-7.65,2.65-13.96-4.59-18.92Z"/>
    </g>
    <g>
      <path class="st7" d="M752.33,44.23c-1.79-3.35-4.24-6.03-7.38-8.05-86.97,1.61-168.4,23.3-244.33,65.11-40.33,22.21-72.55,52.86-96.65,91.95-16.21,29.6-24.28,61.37-24.16,95.31-.42,17.1,2.26,33.66,8.05,49.67,3.81,7.61,8.28,14.77,13.43,21.48,16.65-33.76,37.02-65.07,61.08-93.97,45.19-50.19,97.77-90.46,157.74-120.82,12.35.28,15.26,5.65,8.73,16.11-25.59,17.53-50.43,36.11-74.5,55.71-52.58,45.59-94.65,99.07-126.19,160.42,3.16.46,6.3,1.12,9.4,2.02,76.85,3.84,147.1-15.63,210.76-58.4,7.16-7.6,14.32-15.22,21.48-22.82,5.81-4.92,11.19-10.3,16.11-16.11,48.57-71.36,70.72-150.57,66.45-237.62h-.01Z"/>
      <path class="st6" d="M620.1,144.91c12.35.28,15.26,5.65,8.73,16.11-25.59,17.53-50.43,36.11-74.5,55.71-52.58,45.59-94.65,99.07-126.19,160.42-.81,1.19-1.26,2.53-1.34,4.02-5,7.75-9.7,15.8-14.09,24.16-3.51,6.66-8.89,10.69-16.11,12.09-8.24-1.22-12.05-6.13-11.41-14.77,4.59-14.65,9.95-28.98,16.11-42.96,16.65-33.76,37.02-65.07,61.08-93.97,45.19-50.19,97.77-90.46,157.74-120.82h-.01Z"/>
    </g>
  </g>
</svg>